<?xml version="1.0" encoding="UTF-8"?> <!-- Generator: Adobe Illustrator 24.0.3, SVG Export Plug-In . SVG Version: 6.00 Build 0) --> <svg xmlns="http://www.w3.org/2000/svg" xmlns:xlink="http://www.w3.org/1999/xlink" version="1.1" id="Layer_1" x="0px" y="0px" viewBox="0 0 2834.6 2834.6" style="enable-background:new 0 0 2834.6 2834.6;" xml:space="preserve"> <style type="text/css"> .st0{fill:#FFFFFF;stroke:#000000;stroke-width:29.8592;stroke-linecap:round;stroke-linejoin:round;} .st1{fill:none;stroke:#000000;stroke-width:29.8592;stroke-linecap:round;stroke-linejoin:round;} </style> <circle class="st0" cx="1416.8" cy="1417.4" r="718.7"></circle> <path d="M923.1,1725c-8.9-25.8-8.3-42.5,9.3-53.8c19.9-12.7,41.6-4.7,55.8,17.4c10.3,16.1,14.5,34.9,11.3,54.8l-20.4-2.7 c2.3-15.7,0.8-29-7.6-42.1c-7.3-11.5-17.2-15.3-25.4-10.1c-7.7,4.9-9.1,11.7-1,34.3c9,25.9,10.4,42.9-9.2,55.4 c-18.4,11.8-40.4,4.6-53.8-16.4c-9.9-15.4-13-30.6-11.3-46.8l20.4,1c-1,14,1.3,25.9,7.5,35.6c7,10.9,16.6,13.6,23.7,9.1 C930.7,1755.5,931.3,1748.3,923.1,1725z"></path> <path d="M860.9,1521.6c36-10.3,59.9,4.8,68.9,36.3c9,31.3-3.3,56.5-38.3,66.5l-69.3,19.9l-6.1-21.2l68.5-19.7 c22.4-6.4,31.1-21.4,25.6-40.3c-5.4-18.8-20.1-27-42.3-20.6l-69.3,19.9l-6.1-21.2L860.9,1521.6z"></path> <path d="M867.7,1406.2l-0.3,24.9l40.3,0.5l-0.3,22L782,1452l0.7-49.4c0.4-29.2,17.1-47.4,42.7-47.1 C853.7,1355.9,868.1,1378.6,867.7,1406.2z M802.7,1404.6l-0.4,25.6l45.1,0.6l0.4-25.6c0.2-16.6-8.8-27.2-22.2-27.4 C810.8,1377.7,802.9,1388.1,802.7,1404.6z"></path> <path d="M843,1192.1l-20.7,67.8l31.2,9.5l18.3-60.1l18.8,5.7l-18.3,60.1l32.2,9.8l20.9-68.7l18.8,5.7l-27.3,89.8l-119.9-36.5 l27.1-88.9L843,1192.1z"></path> <path d="M1009.8,1110.3l-53.4,1.7l-15.2,23l36.5,24l-12.1,18.4l-104.7-69l30.7-46.7c15.9-24.1,38.3-30.5,58.8-17 c17.4,11.4,21,28.6,15.4,46l58.2-2.2L1009.8,1110.3z M907.3,1074.4l-17.6,26.8l35.1,23.2l17.8-26.9c8.7-13.2,7.3-26.1-3.5-33.2 C927.6,1056.6,916.3,1060.8,907.3,1074.4z"></path> <path d="M1062.5,921.5c9.8,11.9,8.2,23.4,4.1,33.1c14.5-5.5,27.8-5.5,38.7,7.8c14.4,17.4,7.7,38.4-13.8,56.2l-44.8,36.9l-79.7-96.8 l43.4-35.8C1029.8,906.9,1050,906.3,1062.5,921.5z M1047.8,938.3c-6.5-7.9-16.3-7.4-27.3,1.6L996.1,960l21.2,25.7l23.2-19.1 C1051.4,957.6,1055.2,947.3,1047.8,938.3z M1086.8,974.7c-6.8-8.3-17.3-7.8-30.7,3.3l-27,22.2l21.9,26.5l28.2-23.2 C1090.8,993.9,1094.1,983.5,1086.8,974.7z"></path> <path d="M1119.5,851.2l20.2-8.7l41.8,96.6l60.5-26.2l8,18.4l-80.7,34.9L1119.5,851.2z"></path> <path d="M1328.4,914.6l-21.8,4l-8.8-48.6l-62.5-65.8l25.5-4.6l44.4,48.4l25-60.9l24.8-4.5l-35.5,83L1328.4,914.6z"></path> <path d="M1470.5,914.4c-36.3-3.9-60.3-35.1-56.4-71.1c3.8-35.6,33.5-61.7,71.2-57.7c23,2.5,36,12,46.7,24.6l-15.8,14.7 c-9-10.3-19-17.7-33.2-19.2c-23.8-2.6-43.2,15.1-45.9,39.7s12.5,46.3,36.3,48.9c15.3,1.6,25.8-3.5,37.5-12.3l12.5,15.7 C1509,909.9,1493.8,916.9,1470.5,914.4z"></path> <path d="M1615.5,955.2c-35.1-15.8-47.6-53.4-33-85.8c14.6-32.3,51.5-48.1,86.6-32.3c35.1,15.8,47.6,53.5,33,85.8 C1687.5,955.3,1650.6,971,1615.5,955.2z M1660.4,855.5c-22.7-10.2-46.7,0.8-56.7,23.1c-10.1,22.4-2.2,48.1,20.5,58.3 c22.7,10.2,46.7-0.8,56.8-23.1C1691,891.4,1683.1,865.7,1660.4,855.5z"></path> <path d="M1181.7,1982.2l-12.6-6.2l1.2-19.8l-32.2-15.8l-15.1,13l-12.2-6l63.7-53.8l11.1,5.5L1181.7,1982.2z M1172.7,1910.5 l-25.1,21.5l23.4,11.5L1172.7,1910.5z"></path> <path d="M1318,1963.1c-2.1,9.1-8.3,12.5-14.4,14.1c8,5,12.8,11.3,10.4,21.5c-3.1,13.3-15.6,17.8-32.1,14l-34.2-8l17.2-73.8l33.1,7.7 C1313,1942.1,1320.7,1951.5,1318,1963.1z M1301.3,1994.3c1.5-6.3-2.6-11.2-12.9-13.6l-20.6-4.8l-4.7,20.3l21.5,5 C1293.6,2003.3,1299.8,2001.1,1301.3,1994.3z M1304.5,1962.2c1.4-6-2.4-10.6-10.7-12.5l-18.7-4.4l-4.6,19.6l17.7,4.1 C1296.5,1971,1302.9,1969.1,1304.5,1962.2z"></path> <path d="M1417.9,2028.8c-23.3,0.1-39.6-17.6-39.7-39c0-21.5,16.4-39.4,39.7-39.4c23.3-0.1,39.6,17.6,39.7,39 C1457.6,2010.9,1441.2,2028.8,1417.9,2028.8z M1417.7,1962.6c-15.1,0-25.5,12.1-25.5,26.9c0,14.8,10.8,27.1,25.9,27 c15.1,0,25.6-12.1,25.5-26.9C1443.6,1974.8,1432.8,1962.6,1417.7,1962.6z"></path> <path d="M1560.5,1932.4l14-3.3l-13.2,81.5l-11.4,2.7l-48.1-67.1l14.3-3.4l35.6,51.5L1560.5,1932.4z"></path> <path d="M1679.2,1897.1l-38.7,18.6l8.6,17.8l34.3-16.5l5.2,10.8l-34.3,16.5l8.8,18.4l39.2-18.8l5.2,10.8l-51.2,24.6l-32.9-68.4 l50.7-24.4L1679.2,1897.1z"></path> <path d="M1777.2,1817.8l7.3-6.7l18.7,20.4l20.6-18.8l6.5,7.1l-20.6,18.8l18.7,20.4l-7.3,6.7l-18.7-20.4l-20.6,18.8l-6.5-7.1 l20.6-18.8L1777.2,1817.8z"></path> <path d="M1908.1,1674.2c8,4.8,9.4,11.7,9.1,18c7.1-6.1,14.7-8.8,23.6-3.5c11.7,7,12.3,20.3,3.6,34.8l-17.9,30.2l-65.2-38.7 l17.4-29.3C1886.5,1672.5,1897.9,1668.1,1908.1,1674.2z M1903.2,1686.7c-5.3-3.2-10.8-0.9-15.2,6.5l-9.8,16.5l17.3,10.3l9.3-15.7 C1909.2,1697,1909.2,1690.3,1903.2,1686.7z M1932.8,1699.4c-5.6-3.3-11.5-0.9-16.8,8.2l-10.8,18.2l17.9,10.6l11.3-19 C1939,1709.5,1938.8,1703,1932.8,1699.4z"></path> <path d="M1944.4,1562.2l-13.6,40.7l18.7,6.3l12.1-36.1l11.3,3.8l-12.1,36.1l19.3,6.5l13.8-41.2l11.3,3.8l-18,53.8l-71.9-24.1 l17.9-53.3L1944.4,1562.2z"></path> <path d="M2024,1478.4l-1.5,13.4l-29.7-3.3l-49,24.8l1.7-15.6l35.8-17.4l-31-25.1l1.7-15.2l42,35L2024,1478.4z"></path> <path d="M2025.1,1351.9c2.4,23.2-13.5,41.2-34.8,43.4c-21.4,2.2-40.9-12.3-43.3-35.5c-2.4-23.2,13.5-41.2,34.8-43.4 C2003.1,1314.3,2022.6,1328.8,2025.1,1351.9z M1959.2,1358.8c1.6,15,14.6,24.2,29.4,22.7c14.8-1.5,25.8-13.5,24.3-28.5 c-1.6-15-14.6-24.2-29.4-22.6C1968.7,1331.9,1957.6,1343.8,1959.2,1358.8z"></path> <path d="M1912.1,1214.4l-4.5-12.3l71.3-26l3.8,10.5l-36.4,57.8l50.7-18.5l4.5,12.3l-71.3,26l-4.2-11.6l35.4-56.2L1912.1,1214.4z"></path> <path d="M1928.3,1083.4l15.6,23.6l-63.3,41.8l-15.6-23.6c-13.1-19.9-8.6-42.6,9.3-54.5C1892.2,1058.9,1915.1,1063.5,1928.3,1083.4z M1875.1,1118.5l8.2,12.5l43-28.4l-8.2-12.5c-8.8-13.3-23.5-16.1-35.9-7.8C1869.8,1090.5,1866.4,1105.2,1875.1,1118.5z"></path> <path d="M1589.4,1135c-2.6-2.8-5.2-2.9-6.9-2.5c-2.7,0.6-192.5,47.9-192.5,240.6l-0.1,88.1c0,166.6-151.2,204.9-157.6,206.5 c-4.9,1.2-7.2,7.6-6,17.3c0.8,6.4,3.7,17.4,10.1,17.4c1.4,0,2.7-0.2,4.1-0.5c1.9-0.5,189.9-47.2,189.9-240.6l0.1-88.1 c0-165.9,153.7-204.9,160.2-206.5c1.7-0.4,3.9-1.6,5-5.4C1597.8,1154.2,1594.5,1140.4,1589.4,1135z"></path> <path d="M1225.3,1524.6c-60.4,0-105.4-47.1-105.4-106.9c0-59.2,44.1-107.5,106.9-107.5c38.2,0,61.3,13.3,81.1,32.3l-23.4,26.9 c-16.6-15.4-34.3-25.8-58-25.8c-39.7,0-68.4,32.6-68.4,73.4c0,40.9,28.7,74,68.4,74c25.5,0,41.7-10.4,59.5-26.9l23.4,23.7 C1287.8,1510.4,1264.1,1524.6,1225.3,1524.6z"></path> <path d="M1605.1,1524.6c-63.7,0-108.1-48.3-108.1-106.9c0-58.6,45-107.5,108.7-107.5c63.7,0,108.1,48.3,108.1,106.9 C1713.7,1475.7,1668.7,1524.6,1605.1,1524.6z M1605.1,1343.7c-41.2,0-69.9,32.9-69.9,73.4c0,40.6,29.3,74,70.5,74 c41.2,0,69.9-32.9,69.9-73.4C1675.5,1377.1,1646.2,1343.7,1605.1,1343.7z"></path> <circle class="st1" cx="1416.8" cy="1417.4" r="427.3"></circle> </svg> 